<?xml version="1.0" standalone="no"?><!DOCTYPE svg PUBLIC "-//W3C//DTD SVG 1.1//EN" "http://www.w3.org/Graphics/SVG/1.1/DTD/svg11.dtd"><svg t="1555723190201" class="icon" style="" viewBox="0 0 1024 1024" version="1.1" xmlns="http://www.w3.org/2000/svg" p-id="1328" xmlns:xlink="http://www.w3.org/1999/xlink" width="200" height="200"><defs><style type="text/css"></style></defs><path d="M512 972.8l-10.24-10.24L89.6 555.52C35.84 501.76 7.68 432.64 7.68 358.4c0-74.24 30.72-145.92 81.92-197.12C143.36 107.52 212.48 76.8 289.28 76.8s145.92 28.16 199.68 81.92l23.04 23.04 23.04-23.04C588.8 107.52 660.48 76.8 734.72 76.8c76.8 0 145.92 28.16 199.68 81.92 53.76 53.76 81.92 122.88 81.92 197.12 0 74.24-30.72 145.92-81.92 197.12L512 972.8z m0-43.52l401.92-396.8c48.64-46.08 74.24-110.08 74.24-176.64 0-66.56-25.6-128-74.24-176.64-48.64-46.08-110.08-74.24-179.2-74.24-66.56 0-130.56 25.6-179.2 74.24L512 225.28l-43.52-43.52c-48.64-46.08-110.08-74.24-179.2-74.24s-130.56 25.6-179.2 74.24C61.44 227.84 35.84 291.84 35.84 358.4s25.6 128 74.24 176.64L512 929.28z" p-id="1329"></path></svg>