<?xml version="1.0" standalone="no"?><!DOCTYPE svg PUBLIC "-//W3C//DTD SVG 1.1//EN" "http://www.w3.org/Graphics/SVG/1.1/DTD/svg11.dtd"><svg t="1555723309627" class="icon" style="" viewBox="0 0 1044 1024" version="1.1" xmlns="http://www.w3.org/2000/svg" p-id="3319" xmlns:xlink="http://www.w3.org/1999/xlink" width="203.90625" height="200"><defs><style type="text/css"></style></defs><path d="M515.2 1024c-137.6 0-267-53.2-364.3-149.9C53.6 777.4 0 648.8 0 512c0-136.8 53.6-265.4 150.9-362.1C248.2 53.2 377.6 0 515.3 0 653 0 782.4 53.2 879.7 149.9c200.9 199.7 200.9 524.5 0 724.1C782.4 970.7 652.9 1024 515.2 1024L515.2 1024 515.2 1024 515.2 1024zM515.3 66.7c-119.7 0-232.2 46.3-316.9 130.4C113.8 281.2 67.1 393 67.1 512c0 119 46.6 230.8 131.2 314.9 84.6 84 197.2 130.4 316.9 130.4 119.8 0 232.4-46.4 317-130.5 174.7-173.6 174.7-456.1 0-629.7C747.6 113 635 66.7 515.3 66.7L515.3 66.7 515.3 66.7 515.3 66.7zM332.2 811.6 332.2 811.6c-43.4 0-41.8-47.9-41.8-47.9s55.2-111.9 224.8-111.9 248.6 111.9 248.6 111.9c0 48.1-45.6 47.9-45.6 47.9s-80.4-95.9-203.1-95.9S332.2 811.6 332.2 811.6L332.2 811.6zM365.5 347.4c-34.7 0-63.1 28.1-63.1 62.7 0 34.6 28.3 62.7 63.1 62.7 34.9 0 63.1-28.1 63.1-62.7C428.6 375.4 400.4 347.4 365.5 347.4L365.5 347.4 365.5 347.4 365.5 347.4zM688.8 347.4c-34.8 0-63.1 28.1-63.1 62.7 0 34.6 28.3 62.7 63.1 62.7 34.9 0 63.1-28.1 63.1-62.7C751.9 375.4 723.7 347.4 688.8 347.4L688.8 347.4 688.8 347.4 688.8 347.4z" p-id="3320"></path></svg>