<?xml version="1.0" standalone="no"?><!DOCTYPE svg PUBLIC "-//W3C//DTD SVG 1.1//EN" "http://www.w3.org/Graphics/SVG/1.1/DTD/svg11.dtd"><svg t="1555723298685" class="icon" style="" viewBox="0 0 1030 1024" version="1.1" xmlns="http://www.w3.org/2000/svg" p-id="2564" xmlns:xlink="http://www.w3.org/1999/xlink" width="201.171875" height="200"><defs><style type="text/css"></style></defs><path d="M879.74912 149.87264C782.37696 53.248 652.99968 0 515.2512 0S248.12544 53.248 150.87616 149.87264 0 375.24992 0 512s53.62688 265.37472 150.87616 362.12736S377.6256 1024 515.2512 1024c137.74848 0 267.24864-53.248 364.49792-150.00064 200.87808-199.62368 200.87808-524.37504 0-724.12672z m-47.49824 676.87936c-84.62336 84.12672-197.248 130.49856-316.99968 130.49856s-232.24832-46.37696-316.8768-130.37568C113.75104 742.74816 67.1232 630.99904 67.1232 512s46.75072-230.74816 131.2512-314.87488c84.75136-84.12672 197.248-130.37568 316.8768-130.37568s232.24832 46.24896 316.8768 130.37568c174.7456 173.62432 174.7456 456.12544 0.12288 629.62688z" fill="" p-id="2565"></path><path d="M331.62752 321.1264c-34.74944 0-63.12448 28.12416-63.12448 62.75072s28.25216 62.75072 63.12448 62.75072S394.752 418.49856 394.752 383.87712c0-34.75456-28.25216-62.75072-63.12448-62.75072zM698.752 321.1264c-34.74944 0-63.12448 28.12416-63.12448 62.75072s28.25216 62.62272 63.12448 62.62272 63.12448-28.12416 63.12448-62.75072-28.25216-62.62272-63.12448-62.62272zM758.25152 607.49824a28.8768 28.8768 0 0 0-26.99776 18.74944c-33.50016 89.74848-120.37632 150.00064-216.12544 150.00064s-182.62528-60.25216-216.12544-150.00064a28.68224 28.68224 0 0 0-37.00224-16.87552 28.68224 28.68224 0 0 0-16.87552 37.00224 287.488 287.488 0 0 0 103.87456 134.74816c48.74752 34.49856 106.25024 52.75136 166.12352 52.75136s117.376-18.37568 166.12352-52.75136c47.62624-33.75104 83.62496-80.25088 103.87456-134.74816a28.83584 28.83584 0 0 0-16.87552-37.00224 27.77088 27.77088 0 0 0-9.99424-1.87392z" fill="" p-id="2566"></path></svg>