<?xml version="1.0" standalone="no"?><!DOCTYPE svg PUBLIC "-//W3C//DTD SVG 1.1//EN" "http://www.w3.org/Graphics/SVG/1.1/DTD/svg11.dtd"><svg t="1555678635049" class="icon" style="" viewBox="0 0 1024 1024" version="1.1" xmlns="http://www.w3.org/2000/svg" p-id="2133" xmlns:xlink="http://www.w3.org/1999/xlink" width="200" height="200"><defs><style type="text/css"></style></defs><path d="M511.02375866 873.20929795c-92.74292785 0-185.72991605-35.38874877-256.26335329-105.922186-141.31093481-141.31093481-141.31093481-371.21577175 0-512.52670658 141.31093481-141.31093481 371.21577175-141.31093481 512.52670658 0 141.31093481 141.31093481 141.31093481 371.21577175 0 512.52670658-70.77749758 70.53343723-163.52042543 105.92218603-256.26335329 105.922186z m0-663.60005481c-77.12306631 0-154.49019299 29.28724036-213.06467371 88.10578145-117.63708217 117.63708217-117.63708217 308.73632562 0 426.3734078C356.77762598 782.90697348 433.90069232 812.19421385 511.02375866 812.19421385c77.12306631 0 154.24613264-29.28724036 213.06467373-88.10578146 117.63708217-117.63708217 117.63708217-308.73632562 0-426.3734078-58.8185411-58.8185411-135.94160741-88.10578145-213.06467373-88.10578145z" fill="" p-id="2134"></path><path d="M477.8315529 311.87052411h61.0150841v268.46637009h-61.0150841zM477.8315529 638.91137495h61.0150841v56.13387741h-61.0150841z" fill="" p-id="2135"></path></svg>